<?xml version="1.0" encoding="UTF-8" standalone="no"?>
<!-- Created with Inkscape (http://www.inkscape.org/) -->

<svg
   width="30.763523mm"
   height="23.784548mm"
   viewBox="0 0 30.763523 23.784548"
   version="1.1"
   id="svg1"
   sodipodi:docname="colora.svg"
   inkscape:version="1.3.2 (091e20e, 2023-11-25, custom)"
   xml:space="preserve"
   xmlns:inkscape="http://www.inkscape.org/namespaces/inkscape"
   xmlns:sodipodi="http://sodipodi.sourceforge.net/DTD/sodipodi-0.dtd"
   xmlns="http://www.w3.org/2000/svg"
   xmlns:svg="http://www.w3.org/2000/svg"><sodipodi:namedview
     id="namedview1"
     pagecolor="#ffffff"
     bordercolor="#000000"
     borderopacity="0.25"
     inkscape:showpageshadow="2"
     inkscape:pageopacity="0.0"
     inkscape:pagecheckerboard="0"
     inkscape:deskcolor="#d1d1d1"
     inkscape:document-units="mm"
     inkscape:zoom="1"
     inkscape:cx="-121"
     inkscape:cy="191.5"
     inkscape:window-width="2599"
     inkscape:window-height="1326"
     inkscape:window-x="2960"
     inkscape:window-y="589"
     inkscape:window-maximized="0"
     inkscape:current-layer="layer1" /><defs
     id="defs1" /><g
     inkscape:label="Layer 1"
     inkscape:groupmode="layer"
     id="layer1"
     transform="translate(-60.996789,-21.685647)"><path
       style="font-weight:bold;font-size:32.0979px;line-height:1;font-family:'Source Serif Pro';-inkscape-font-specification:'Source Serif Pro';word-spacing:0px;fill:#f3f4ee;stroke-width:2.00001;stroke-linecap:round"
       d="m 68.989168,45.470192 q -2.182658,0 -4.012238,-0.898741 -1.797482,-0.930839 -2.888811,-2.760419 -1.091329,-1.829581 -1.091329,-4.525804 0,-2.632028 1.155525,-4.493706 1.187622,-1.861679 3.145594,-2.824616 1.99007,-0.995035 4.365314,-0.995035 1.701189,0 3.017203,0.641958 1.316014,0.641958 2.086364,1.701189 0.802447,1.059231 0.898741,2.343147 -0.513567,1.669091 -2.182657,1.669091 -0.930839,0 -1.636993,-0.674056 -0.706154,-0.674056 -0.802448,-2.375245 L 70.818748,30.67306 q -0.128392,-0.0321 -0.288881,-0.0321 -0.16049,0 -0.320979,0 -0.898741,0 -1.797483,0.60986 -0.898741,0.60986 -1.476503,1.925874 -0.577762,1.316014 -0.577762,3.498672 0,2.760419 1.21972,4.26902 1.251818,1.476504 3.273986,1.476504 1.155524,0 2.022168,-0.481469 0.866643,-0.513566 1.572797,-1.316014 l 1.123426,0.995035 q -0.930839,1.957972 -2.632028,2.920909 -1.669091,0.930839 -3.948041,0.930839 z m 7.63931,-0.481468 v -1.508602 l 1.765385,-0.385174 q 0.0321,-1.219721 0.0321,-2.439441 0.0321,-1.21972 0.0321,-2.407342 V 24.799144 l -1.99007,-0.320979 v -1.348111 l 6.740559,-1.444406 0.513566,0.320979 -0.128391,4.493706 v 11.747832 q 0,1.21972 0,2.43944 0.0321,1.21972 0.0642,2.439441 l 1.765384,0.353076 v 1.508602 z"
       id="text196-3-2"
       aria-label="cl" /><g
       id="g242-13-1"
       style="fill:#f3f4ee;fill-opacity:1"
       transform="translate(-35.506752,-30.212578)"
       inkscape:export-filename="colora_textonly.svg"
       inkscape:export-xdpi="609.84668"
       inkscape:export-ydpi="609.84668"><path
         id="path241-42-0"
         style="stroke-width:2;stroke-linecap:round"
         d="m 127.26707,58.46521 a 1.8708867,1.8708867 0 0 1 -1.87089,1.870887 1.8708867,1.8708867 0 0 1 -1.87089,-1.870887 1.8708867,1.8708867 0 0 1 1.87089,-1.870887 1.8708867,1.8708867 0 0 1 1.87089,1.870887 z" /><path
         id="path241-8-1-6"
         style="stroke-width:2;stroke-linecap:round"
         d="m 127.26707,64.740387 a 1.8708867,1.8708867 0 0 1 -1.87089,1.870887 1.8708867,1.8708867 0 0 1 -1.87089,-1.870887 1.8708867,1.8708867 0 0 1 1.87089,-1.870887 1.8708867,1.8708867 0 0 1 1.87089,1.870887 z" /></g></g></svg>
